<?xml version="1.0"?>
<svg width="16px" height="20px" viewBox="0 0 16 20" version="1.1" xmlns="http://www.w3.org/2000/svg" xmlns:xlink="http://www.w3.org/1999/xlink">
    <title>FIN Copy</title>
    <g id="VR-icons" stroke="none" stroke-width="1" fill="none" fill-rule="evenodd">
        <g id="FIN-Copy" fill-rule="nonzero">
            <path d="M4.08333333,0.285467275 C3.4875,0.285467275 3,0.819842275 3,1.47296728 L3,18.0979673 C3,18.7510923 3.4875,19.2854673 4.08333333,19.2854673 L14.9166667,19.2854673 C15.5125,19.2854673 16,18.7510923 16,18.0979673 L16,5.03546728 L11.6666667,0.285467275 L4.08333333,0.285467275 Z" id="Path-Copy" fill="#E2E5E7"></path>
            <polygon id="Path-Copy-3" fill="#CAD1D8" points="15.9682724 9.02534678 11.9682724 5.02534678 15.9682724 5.02534678"></polygon>
            <path d="M12.45,15.2854673 L2,15.2854673 L2,15.7854673 L12.45,15.7854673 C12.7525,15.7854673 13,15.5604673 13,15.2854673 L13,14.7854673 C13,15.0604673 12.7525,15.2854673 12.45,15.2854673 Z" id="Path-Copy-4" fill="#CAD1D8"></path>
            <path d="M13,14.702134 C13,15.0229673 12.75625,15.2854673 12.4583333,15.2854673 L0.54166667,15.2854673 C0.24375,15.2854673 0,15.0229673 0,14.702134 L0,8.86880061 C0,8.54796728 0.24375,8.28546728 0.54166667,8.28546728 L12.4583333,8.28546728 C12.75625,8.28546728 13,8.54796728 13,8.86880061 L13,14.702134 Z" id="Path-Copy-5" fill="#6BA2E2"></path>
            <path d="M12.0691497,5.16830131 L15.8191497,5.16830131 L11.8191497,0.16830131 L10.8191497,3.91830131 C10.8191497,4.60580131 11.3816497,5.16830131 12.0691497,5.16830131 Z" id="Path-Copy-2" fill="#B0B7BD" transform="translate(13.319150, 2.668301) rotate(-4.000000) translate(-13.319150, -2.668301) "></path>
            <text id="CSV" fill="#FFFFFF" font-family="ProximaNova-Medium, Proxima Nova" font-size="4" font-weight="400">
                <tspan x="2.63" y="13.2854673">CSV</tspan>
            </text>
        </g>
    </g>
</svg>